<svg width="100%" height="100%" id="svg" viewBox="0 0 1440 600" xmlns="http://www.w3.org/2000/svg" class="transition duration-300 ease-in-out delay-150"><defs><linearGradient id="gradient" x1="0%" y1="50%" x2="100%" y2="50%"><stop offset="5%" stop-color="#3ce68488"></stop><stop offset="95%" stop-color="#bffd9d88"></stop></linearGradient></defs><path d="M 0,600 C 0,600 0,200 0,200 C 93.79904306220095,227.61722488038276 187.5980861244019,255.23444976076553 276,252 C 364.4019138755981,248.76555023923447 447.4066985645934,214.6794258373206 544,199 C 640.5933014354066,183.3205741626794 750.7751196172248,186.04784688995215 861,202 C 971.2248803827752,217.95215311004785 1081.492822966507,247.12918660287082 1178,249 C 1274.507177033493,250.87081339712918 1357.2535885167465,225.43540669856458 1440,200 C 1440,200 1440,600 1440,600 Z" stroke="none" stroke-width="0" fill="url(#gradient)" class="transition-all duration-300 ease-in-out delay-150 path-0"></path><defs><linearGradient id="gradient" x1="0%" y1="50%" x2="100%" y2="50%"><stop offset="5%" stop-color="#3ce684ff"></stop><stop offset="95%" stop-color="#bffd9dff"></stop></linearGradient></defs><path d="M 0,600 C 0,600 0,400 0,400 C 80.10526315789477,420.6507177033493 160.21052631578954,441.30143540669854 263,440 C 365.78947368421046,438.69856459330146 491.26315789473676,415.44497607655506 596,391 C 700.7368421052632,366.55502392344494 784.7368421052631,340.91866028708137 871,361 C 957.2631578947369,381.08133971291863 1045.7894736842104,446.8803827751196 1141,461 C 1236.2105263157896,475.1196172248804 1338.1052631578948,437.5598086124402 1440,400 C 1440,400 1440,600 1440,600 Z" stroke="none" stroke-width="0" fill="url(#gradient)" class="transition-all duration-300 ease-in-out delay-150 path-1"></path></svg>