<svg width="100%" height="100%" id="svg" viewBox="0 0 1440 400" xmlns="http://www.w3.org/2000/svg" class="transition duration-300 ease-in-out delay-150"><defs><linearGradient id="gradient" x1="0%" y1="50%" x2="100%" y2="50%"><stop offset="5%" stop-color="#3ce68488"></stop><stop offset="95%" stop-color="#9ade7688"></stop></linearGradient></defs><path d="M 0,400 C 0,400 0,133 0,133 C 95.08133971291869,141.85167464114832 190.16267942583738,150.70334928229664 284,149 C 377.8373205741626,147.29665071770336 470.4306220095692,135.03827751196172 570,119 C 669.5693779904308,102.96172248803829 776.1148325358853,83.14354066985646 866,86 C 955.8851674641147,88.85645933014354 1029.11004784689,114.38755980861245 1122,126 C 1214.88995215311,137.61244019138755 1327.4449760765551,135.3062200956938 1440,133 C 1440,133 1440,400 1440,400 Z" stroke="none" stroke-width="0" fill="url(#gradient)" class="transition-all duration-300 ease-in-out delay-150 path-0"></path><defs><linearGradient id="gradient" x1="0%" y1="50%" x2="100%" y2="50%"><stop offset="5%" stop-color="#3ce684ff"></stop><stop offset="95%" stop-color="#9ade76ff"></stop></linearGradient></defs><path d="M 0,400 C 0,400 0,266 0,266 C 82.42105263157893,256.3923444976076 164.84210526315786,246.78468899521528 255,240 C 345.15789473684214,233.21531100478472 443.0526315789474,229.25358851674645 546,224 C 648.9473684210526,218.74641148325355 756.9473684210526,212.20095693779905 859,233 C 961.0526315789474,253.79904306220095 1057.157894736842,301.9425837320574 1153,312 C 1248.842105263158,322.0574162679426 1344.421052631579,294.0287081339713 1440,266 C 1440,266 1440,400 1440,400 Z" stroke="none" stroke-width="0" fill="url(#gradient)" class="transition-all duration-300 ease-in-out delay-150 path-1"></path></svg>